<svg id="Layer_1" data-name="Layer 1" xmlns="http://www.w3.org/2000/svg" viewBox="0 0 392.72 77.32"><title>sisense_logo_BW</title><path d="M85.91,66V57.11h35.62V48.24H85.91V23.85h44.52v8.87H94.82v6.65h35.61V66Zm52.3,0h8.91V23.85h-8.91ZM304,66V23.85h-8.9V53.23L268.43,23.85h-8.9V66h8.9V36.6L295.14,66Zm-97-33.26h44.69V23.85H207.05Zm0,15.52h44.69V39.37H207.05Zm0,17.74h44.69V57.11H207.05ZM364.4,32.72h44.69V23.85H364.4Zm0,15.52h44.69V39.37H364.4Zm0,17.74h44.69V57.11H364.4Zm-165,0V39.37H163.82V32.72h35.61V23.85H154.91V48.24h35.62v8.87H154.91V66Zm156.76,0V39.37H320.58V32.72h35.61V23.85H311.67V48.24h35.62v8.87H311.67V66ZM59.6,17.48,16.36,1.86V33.11Zm0,43.33L16.36,45.19V76.43ZM30.89,39.5,74.12,55.12V23.88ZM56.11,72.68l18,6.5v-13Z" transform="translate(-16.36 -1.86)"/></svg>